<?xml version="1.0" encoding="UTF-8" standalone="no"?>
<svg width="100px" height="34px" viewBox="0 0 100 34" version="1.1" xmlns="http://www.w3.org/2000/svg" xmlns:xlink="http://www.w3.org/1999/xlink" xmlns:sketch="http://www.bohemiancoding.com/sketch/ns">
    <!-- Generator: Sketch 3.0.1 (7597) - http://www.bohemiancoding.com/sketch -->
    <title>buttons-dark</title>
    <description>Created with Sketch.</description>
    <defs></defs>
    <g id="Page-1" stroke="none" stroke-width="1" fill="none" fill-rule="evenodd" sketch:type="MSPage">
        <g id="buttons-dark" sketch:type="MSArtboardGroup">
            <g id="Newer" sketch:type="MSLayerGroup" transform="translate(68.000000, 0.000000)">
                <rect id="Background" fill="#D9D9D9" sketch:type="MSShapeGroup" x="0" y="0" width="34" height="34"></rect>
                <g id="Icon" transform="translate(13.000000, 9.000000)" fill="#FFFFFF" sketch:type="MSShapeGroup">
                    <path d="M4.58578644,8 L0.464466094,3.87867966 L1.87867966,2.46446609 L7.41421356,8 L4.58578644,8 Z" id="Rectangle-3"></path>
                    <path d="M4.58578644,6 L0.464466094,1.87867966 L1.87867966,0.464466094 L7.41421356,6 L4.58578644,6 Z" id="Rectangle-8" transform="translate(4.000000, 7.000000) scale(1, -1) translate(-4.000000, -7.000000) "></path>
                </g>
            </g>
            <g id="Older" sketch:type="MSLayerGroup" transform="translate(34.000000, 0.000000)">
                <rect id="Background" fill="#D9D9D9" sketch:type="MSShapeGroup" transform="translate(17.000000, 17.000000) scale(-1, 1) translate(-17.000000, -17.000000) " x="0" y="0" width="34" height="34"></rect>
                <g id="Icon" transform="translate(17.000000, 17.000000) scale(-1, 1) translate(-17.000000, -17.000000) translate(13.000000, 9.000000)" fill="#FFFFFF" sketch:type="MSShapeGroup">
                    <path d="M4.58578644,8 L0.464466094,3.87867966 L1.87867966,2.46446609 L7.41421356,8 L4.58578644,8 Z" id="Rectangle-3"></path>
                    <path d="M4.58578644,6 L0.464466094,1.87867966 L1.87867966,0.464466094 L7.41421356,6 L4.58578644,6 Z" id="Rectangle-8" transform="translate(4.000000, 7.000000) scale(1, -1) translate(-4.000000, -7.000000) "></path>
                </g>
            </g>
            <g id="More" sketch:type="MSLayerGroup">
                <rect id="Background" fill="#D9D9D9" sketch:type="MSShapeGroup" x="0" y="0" width="34" height="34"></rect>
                <path d="M11,16 L11,18 L13,18 L13,16 L11,16 Z M16,16 L16,18 L18,18 L18,16 L16,16 Z M21,16 L21,18 L23,18 L23,16 L21,16 Z" id="Icon" fill="#FFFFFF" sketch:type="MSShapeGroup"></path>
            </g>
        </g>
    </g>
</svg>