<svg width="252" height="18" viewBox="0 0 252 18" xmlns="http://www.w3.org/2000/svg" xmlns:sketch="http://www.bohemiancoding.com/sketch/ns"><title>icons</title><g sketch:type="MSArtboardGroup" fill="none"><g sketch:type="MSLayerGroup" fill="#4B505A"><path d="M243.868 2.44s-.689-.562-1.19-1.749c-.501-1.185-1.503-.748-1.503.562 0 1.311-.125 11.549-.125 11.549s-5.573-1.248-5.01 3.871c0 0 3.538 3.746 6.544-2.123l-.094-8.739s6.071 2.221 3.006 5.868c0 0 .376 1.561 1.565.375 1.189-1.187 4.759-5.245-3.194-9.615z" sketch:type="MSShapeGroup"/><path d="M233.836 5.041l-.043-.211-.028-.097c-.231-.715-.88-1.23-1.645-1.231h.119s-3.075-.483-7.165-.502c-4.09.019-7.165.502-7.165.502h.119c-.765 0-1.413.516-1.645 1.231l-.028.097-.042.211c-.112.83-.296 2.487-.313 4.473.017 1.987.201 3.642.313 4.474l.042.211.028.097c.232.715.88 1.231 1.645 1.231h-.119s3.075.483 7.165.503c4.091-.02 7.165-.503 7.165-.503h-.119c.765 0 1.413-.515 1.645-1.231l.028-.097.043-.211c.111-.831.296-2.487.312-4.474-.017-1.986-.201-3.643-.313-4.473zm-6.074 4.877l-3.664 2.771c-.076.058-.168.088-.259.088l-.2-.05c-.147-.078-.241-.237-.241-.41v-5.539c0-.173.093-.331.241-.41.147-.078.325-.063.459.038l3.664 2.769c.115.087.181.225.181.372s-.066.284-.181.371z" sketch:type="MSShapeGroup"/><path d="M211.771 5.003v-.002c-.068-.002-.904-.025-1.986.48l-.004.002-.172.084-.019.01c-.24.123-.491.273-.747.456l-.015.01-.187.139-.015.012c-.255.198-.513.429-.769.698l-.037.039-.175.193-.027.031c-.181.208-.359.436-.534.685-.283.403-.557.859-.813 1.384l-.1.19.001.003-.064.117-.114.204-.134.22-.101.153-.108.153-.162.214-.101.125-.114.133-.107.115-.179.182-.087.083-.122.109-.161.133-.126.095-.079.056-.207.137-.072.045-.122.07-.075.04-.191.096-.073.033-.11.047-.081.032-.158.057-.077.026-.089.027-.131.036-.072.017-.086.019-.055.011-.12.021-.018.003v-.001c-.231.034-.379.032-.402.031h-.035c-1.503 0-2.725-1.274-2.725-2.838 0-1.566 1.223-2.838 2.725-2.838l.035-.001c.085-.003 1.772-.037 3.204 1.769.27-.52.554-.98.849-1.383-1.784-1.962-3.829-1.97-4.103-1.963-2.331.009-4.225 1.986-4.225 4.417 0 2.421 1.88 4.391 4.198 4.414l.018.001.023.001h.057l.381-.021.128-.015.081-.011.011-.002.237-.041h.001c1.002-.201 2.619-.834 3.912-2.796.2-.304.392-.637.573-1.007.772-1.581 1.697-2.418 2.473-2.863l.004-.002.058-.034v.002c.852-.471 1.508-.469 1.553-.466l.032.002c1.503 0 2.724 1.273 2.724 2.838 0 1.565-1.222 2.838-2.749 2.838-.083.003-1.646.004-3.114-1.805l-.057.108c-.238.487-.495.917-.763 1.301 1.733 1.872 3.574 1.975 3.931 1.975l.036-.001c2.334-.006 4.23-1.984 4.23-4.416 0-2.424-1.885-4.397-4.208-4.415z" sketch:type="MSShapeGroup"/></g><g sketch:type="MSLayerGroup"><path d="M197.301 8.23h-2.704v-2.837c0-.216-.167-.393-.373-.393h-.77c-.207 0-.375.176-.375.393v2.837h-2.704c-.206 0-.374.176-.374.393v.808c0 .217.168.393.374.393h2.704v2.839c0 .217.167.393.375.393h.77c.206 0 .373-.176.373-.393v-2.839h2.704c.206 0 .374-.176.374-.393v-.808c0-.217-.168-.393-.374-.393zm-9.088 2.488c-.569-.423-1.086-1.043-1.095-1.233 0-.347.03-.513.771-1.119.958-.787 1.486-1.822 1.486-2.916 0-.992-.289-1.873-.78-2.491h.381c.079 0 .156-.026.219-.074l1.064-.809c.132-.099.188-.277.137-.439-.051-.162-.193-.272-.356-.272h-4.758c-.521 0-1.049.096-1.569.284-1.734.627-2.946 2.178-2.946 3.769 0 2.255 1.665 3.964 3.89 4.018-.044.179-.066.355-.066.527 0 .348.084.677.257.995h-.061c-2.121 0-4.036 1.092-4.762 2.717-.189.423-.286.85-.286 1.272 0 .41.1.805.297 1.176.457.858 1.438 1.523 2.764 1.874.684.181 1.42.274 2.183.274.686 0 1.34-.093 1.945-.277 1.886-.575 3.105-2.031 3.105-3.713 0-1.613-.495-2.579-1.821-3.564zm-6.009 3.694c0-1.174 1.421-2.203 3.041-2.203h.044c.352.005.696.059 1.02.163l.321.231c.75.536 1.246.89 1.384 1.459.032.143.049.286.049.425 0 1.462-1.039 2.202-3.088 2.202-1.553 0-2.77-1-2.77-2.277zm1.474-11.09c.253-.303.585-.464.957-.464l.042.001c1.052.032 2.058 1.262 2.243 2.741.104.828-.072 1.607-.468 2.081-.254.304-.581.464-.968.464h-.018000000000000002c-1.03-.033-2.058-1.31-2.242-2.787-.103-.826.062-1.568.454-2.037z" id="Google+" fill="#E74136" sketch:type="MSShapeGroup"/><path d="M175.183 5.866h-3.128v-1.88c0-.706.511-.871.87-.871h2.207v-3.104l-3.04-.011c-3.374 0-4.142 2.315-4.142 3.797v2.069h-1.951v3.199h1.951v9.051h4.104v-9.051h2.77l.358-3.199z" id="Facebook" fill="#366499" sketch:type="MSShapeGroup"/><path d="M162.097 3.777c-.665.302-1.381.506-2.132.597.767-.469 1.355-1.211 1.632-2.097-.717.435-1.512.75-2.358.92-.677-.736-1.642-1.197-2.71-1.197-2.05 0-3.712 1.697-3.712 3.79 0 .297.033.586.096.864-3.086-.158-5.822-1.667-7.653-3.96-.32.559-.503 1.211-.503 1.906 0 1.315.655 2.475 1.652 3.154-.608-.02-1.181-.19-1.682-.474v.048c0 1.836 1.28 3.368 2.978 3.716-.312.086-.64.133-.978.133-.24 0-.472-.024-.699-.068.473 1.506 1.844 2.602 3.468 2.632-1.271 1.017-2.871 1.623-4.611 1.623-.299 0-.595-.018-.886-.053 1.644 1.076 3.595 1.703 5.691 1.703 6.829 0 10.563-5.775 10.563-10.784l-.01-.491c.725-.533 1.355-1.201 1.852-1.961z" id="Twitter" fill="#34C5EF" sketch:type="MSShapeGroup"/></g><g sketch:type="MSLayerGroup" fill="#D9D9D9"><path d="M126.003 9.522c2.228 0 4.323.87 5.898 2.454 1.577 1.583 2.445 3.692 2.445 5.937h3.434c0-6.521-5.283-11.825-11.777-11.825v3.434zm.005-6.088c7.942 0 14.404 6.497 14.404 14.483h3.434c0-9.88-8.002-17.917-17.838-17.917v3.434zm4.749 12.084c0 1.313-1.065 2.379-2.379 2.379-1.313 0-2.379-1.065-2.379-2.379s1.065-2.379 2.378-2.379c1.313 0 2.379 1.065 2.379 2.379z" sketch:type="MSShapeGroup"/><path d="M125.977 7.253c-.119-.583-.298-1.158-.529-1.707-.227-.539-.51-1.058-.837-1.542-.325-.481-.698-.933-1.109-1.343-.41-.411-.863-.784-1.343-1.109-.485-.329-1.004-.61-1.542-.838-.549-.231-1.123-.41-1.707-.529-.598-.123-1.213-.185-1.828-.185-.616 0-1.231.062-1.829.185-.583.118-1.158.298-1.706.529-.538.228-1.058.51-1.543.838-.481.324-.933.697-1.343 1.109-.411.41-.783.863-1.108 1.343-.328.485-.61 1.004-.837 1.542-.233.549-.411 1.123-.53 1.707-.122.597-.184 1.213-.184 1.828 0 .616.062 1.232.184 1.829.119.583.298 1.158.53 1.706.227.538.51 1.058.837 1.543.325.481.697.932 1.108 1.343.41.41.863.783 1.343 1.108.486.328 1.005.61 1.543.837.548.233 1.123.41 1.706.529.598.123 1.213.185 1.829.185.615 0 1.231-.062 1.828-.185.584-.12 1.158-.297 1.707-.529.538-.227 1.058-.51 1.542-.837.481-.325.933-.697 1.343-1.108.41-.411.784-.863 1.109-1.343.328-.485.61-1.005.837-1.543.232-.548.41-1.123.529-1.706.123-.598.184-1.213.184-1.829 0-.615-.061-1.231-.184-1.828zm-1.144 1.751c-.112-.024-2.736-.589-5.401-.254l-.167-.4c-.161-.379-.335-.756-.516-1.125 3.063-1.25 4.306-3.048 4.321-3.069 1.088 1.32 1.746 3.008 1.763 4.849zm-2.63-5.743c-.019.03-1.124 1.711-4.051 2.808-1.326-2.436-2.782-4.371-2.899-4.524.586-.142 1.198-.219 1.828-.219 1.964 0 3.755.732 5.122 1.935zm-6.98-1.71l-.001.001-.023.005.024-.007zm-1.451.516c.103.138 1.538 2.083 2.88 4.468-3.724.989-6.955.951-7.16.947.504-2.402 2.118-4.394 4.28-5.415zm-4.446 7.014l.007-.245c.137.003 3.969.09 7.962-1.105.222.435.435.877.629 1.318l-.306.093c-4.185 1.353-6.308 5.119-6.308 5.119l.003.004c-1.235-1.374-1.987-3.191-1.987-5.183zm7.755 7.756c-1.877 0-3.598-.667-4.94-1.777l.174.136s1.487-3.242 6.085-4.845l.052-.017c1.091 2.836 1.542 5.21 1.657 5.888-.931.396-1.954.615-3.028.615zm4.334-1.323c-.079-.468-.492-2.744-1.509-5.54 2.503-.4 4.673.286 4.833.339-.345 2.161-1.582 4.025-3.323 5.201z" sketch:type="MSShapeGroup"/><g transform="translate(90 5)" sketch:type="MSShapeGroup"><ellipse id="Oval" cx="3.963" cy="4.414" rx="3.963" ry="4.414"/><ellipse cx="13.882" cy="4.414" rx="3.963" ry="4.414"/></g><path d="M81.86 0c-5.225 0-7.86 3.506-7.86 6.431 0 1.77.716 3.345 2.252 3.932.252.097.478.004.551-.257l.225-.826c.073-.258.045-.348-.158-.574-.443-.489-.726-1.121-.726-2.019 0-2.601 2.08-4.93 5.415-4.93 2.953 0 4.576 1.689 4.576 3.945 0 2.969-1.403 5.474-3.487 5.474-1.151 0-2.012-.89-1.736-1.983.33-1.304.971-2.711.971-3.653 0-.842-.483-1.545-1.483-1.545-1.176 0-2.121 1.139-2.121 2.664 0 .972.351 1.629.351 1.629s-1.203 4.774-1.415 5.61c-.42 1.665-.063 3.705-.033 3.911.018.122.185.152.262.06.108-.133 1.51-1.751 1.985-3.369.135-.458.773-2.829.773-2.829.382.683 1.499 1.282 2.687 1.282 3.535 0 5.934-3.016 5.934-7.054 0-3.054-2.763-5.898-6.962-5.898z" sketch:type="MSShapeGroup"/><path d="M54 0v18h18v-18h-18zm6 15h-3v-8h3v8zm-1.509-9h-.018c-.894 0-1.473-.667-1.473-1.5 0-.852.597-1.5 1.509-1.5.912 0 1.474.648 1.491 1.5 0 .833-.579 1.5-1.509 1.5zm10.509 9h-2.621v-4.182c0-1.05-.379-1.767-1.327-1.767-.724 0-1.155.483-1.345.95-.069.167-.086.4-.086.634v4.365h-2.621s.034-7.083 0-7.815h2.621v1.106c.348-.532.971-1.291 2.362-1.291 1.724 0 3.017 1.117 3.017 3.518v4.482z" id="Shape" sketch:type="MSShapeGroup"/><g sketch:type="MSShapeGroup"><path d="M53.718 7.744h-2.704v-2.837c0-.216-.167-.393-.373-.393h-.77c-.207 0-.375.176-.375.393v2.837h-2.704c-.206 0-.374.176-.374.393v.808c0 .217.168.393.374.393h2.704v2.839c0 .217.167.393.375.393h.77c.206 0 .373-.176.373-.393v-2.839h2.704c.206 0 .374-.176.374-.393v-.808c0-.217-.168-.393-.374-.393zM44.631 10.232c-.569-.423-1.086-1.043-1.095-1.233 0-.347.03-.513.771-1.119.958-.787 1.486-1.822 1.486-2.916 0-.992-.289-1.873-.78-2.491h.381c.079 0 .156-.026.219-.074l1.064-.809c.132-.099.188-.277.137-.439-.051-.162-.193-.272-.356-.272h-4.758c-.521 0-1.049.096-1.569.284-1.734.627-2.946 2.178-2.946 3.769 0 2.255 1.665 3.964 3.89 4.018-.044.179-.066.355-.066.527 0 .348.084.677.257.995h-.061c-2.121 0-4.036 1.092-4.762 2.717-.189.423-.286.85-.286 1.272 0 .41.1.805.297 1.176.457.858 1.438 1.523 2.764 1.874.684.181 1.42.274 2.183.274.686 0 1.34-.093 1.945-.277 1.886-.575 3.105-2.031 3.105-3.713 0-1.613-.495-2.579-1.821-3.564zm-6.009 3.694c0-1.174 1.421-2.203 3.041-2.203h.044c.352.005.696.059 1.02.163l.321.231c.75.536 1.246.89 1.384 1.459.032.143.049.286.049.425 0 1.462-1.039 2.202-3.088 2.202-1.553 0-2.77-1-2.77-2.277zm1.474-11.09c.253-.303.585-.464.957-.464l.042.001c1.052.032 2.058 1.262 2.243 2.741.104.828-.072 1.607-.468 2.081-.254.304-.581.464-.968.464h-.018000000000000002c-1.03-.033-2.058-1.31-2.242-2.787-.103-.826.062-1.568.454-2.037z"/></g><path d="M31.183 5.866h-3.128v-1.88c0-.706.511-.871.87-.871h2.207v-3.104l-3.04-.011c-3.374 0-4.142 2.315-4.142 3.797v2.069h-1.951v3.199h1.951v9.051h4.104v-9.051h2.77l.358-3.199z" sketch:type="MSShapeGroup"/><path d="M18.097 3.777c-.665.302-1.381.506-2.132.597.767-.469 1.355-1.211 1.632-2.097-.717.435-1.512.75-2.358.92-.677-.736-1.642-1.197-2.71-1.197-2.05 0-3.712 1.697-3.712 3.79 0 .297.033.586.096.864-3.086-.158-5.822-1.667-7.653-3.96-.32.559-.503 1.211-.503 1.906 0 1.315.655 2.475 1.652 3.154-.608-.02-1.181-.19-1.682-.474v.048c0 1.836 1.28 3.368 2.978 3.716-.312.086-.64.133-.978.133-.24 0-.472-.024-.699-.068.473 1.506 1.844 2.602 3.468 2.632-1.271 1.017-2.871 1.623-4.611 1.623-.299 0-.595-.018-.886-.053 1.644 1.076 3.595 1.703 5.691 1.703 6.829 0 10.563-5.775 10.563-10.784l-.01-.491c.725-.533 1.355-1.201 1.852-1.961z" sketch:type="MSShapeGroup"/></g></g></svg>