<svg width="72" height="72" viewBox="0 0 72 72" xmlns="http://www.w3.org/2000/svg" xmlns:sketch="http://www.bohemiancoding.com/sketch/ns"><title>placeholder-audio</title><path d="M3.499 50.911c.153 0 .276-.121.301-.294l.81-6.392-.81-6.537c-.025-.173-.15-.291-.303-.291s-.279.124-.301.291l-.713 6.537.713 6.392c.022.17.15.294.303.294zm-2.389-2.713v.003-.003zm-.289.285c.147 0 .266-.118.289-.282l.627-3.975-.627-4.042c-.022-.167-.143-.285-.289-.285-.151 0-.27.121-.291.288l-.529 4.039.529 3.972c.021.167.141.285.291.285zm5.888-12.01c-.024-.208-.176-.357-.364-.357-.191 0-.344.151-.363.357l-.676 7.756.676 7.471c.019.208.172.357.363.357.188 0 .341-.151.363-.354l.768-7.472-.767-7.757zm2.507 15.879c.22 0 .403-.179.423-.418l.726-7.707-.726-7.966c-.021-.242-.203-.421-.423-.421-.225 0-.408.179-.426.421l-.641 7.966.641 7.707c.018.239.2.418.426.418zm2.892.127c.259 0 .467-.205.486-.481v.003l.685-7.774-.685-7.393c-.018-.275-.228-.481-.486-.481-.262 0-.472.211-.488.484l-.602 7.39.602 7.771c.016.278.225.481.488.481zm4.104-8.249l-.642-12.024c-.016-.306-.257-.545-.548-.545-.292 0-.532.239-.548.545l-.566 12.024.566 7.774c.016.303.256.542.548.542.291 0 .532-.239.548-.545v.003l.642-7.774zm1.749 8.33c.326 0 .595-.269.611-.608v.006l.598-7.723-.598-14.774c-.016-.342-.284-.608-.611-.608-.328 0-.595.266-.61.608l-.529 14.774.529 7.72c.015.337.284.605.61.605zm2.964-25.002c-.366 0-.66.294-.673.672l-.494 16.005.494 7.644c.012.372.307.666.673.666.361 0 .657-.294.672-.669v.006l.557-7.647-.557-16.005c-.015-.378-.31-.672-.672-.672zm2.984 25.002c.4 0 .721-.323.735-.732v.003l.514-7.595-.514-16.547c-.013-.412-.335-.732-.735-.732-.398 0-.721.32-.735.732l-.457 16.544.457 7.596c.013.407.336.731.735.731zm3.011-.009c.433 0 .783-.351.795-.796v.006l.47-7.526-.47-16.126c-.012-.444-.361-.793-.795-.793-.436 0-.786.348-.796.793l-.42 16.126.42 7.523c.009.441.36.793.796.793zm4.319-8.315l-.429-15.537c-.012-.478-.389-.856-.858-.856-.472 0-.848.378-.858.859l-.384 15.534.385 7.478c.009.472.385.85.857.85.469 0 .846-.378.858-.859v.009l.429-7.478zm1.768 8.345c.498 0 .91-.412.92-.92v.006l.386-7.427-.386-18.486c-.01-.508-.422-.92-.92-.92-.5 0-.91.412-.918.92l-.347 18.482c0 .015.347 7.43.347 7.43.009.502.419.915.918.915zm3.042-29.485c-.533 0-.973.443-.982.985l-.401 20.16.401 7.32c.009.533.448.974.982.974.533 0 .973-.441.982-.98v.006l.436-7.32-.436-20.162c-.007-.542-.447-.983-.982-.983zm2.784 29.491c.024.003 24.537.015 24.696.015 4.922 0 8.91-4.008 8.91-8.952s-3.989-8.949-8.91-8.949c-1.22 0-2.385.248-3.444.692-.711-8.067-7.441-14.393-15.655-14.393-2.012 0-3.97.399-5.7 1.072-.674.261-.852.528-.858 1.053v28.408c.006.543.429.998.961 1.054z" sketch:type="MSShapeGroup" fill="#ECECEC"/></svg>