<svg width="72" height="72" viewBox="0 0 72 72" xmlns="http://www.w3.org/2000/svg" xmlns:sketch="http://www.bohemiancoding.com/sketch/ns"><title>placeholder-youtube</title><g sketch:type="MSLayerGroup" fill="#ECECEC"><path d="M58.645 34.331h-45.741c-7.271 0-13.164 5.939-13.164 13.256v10.651c0 7.317 5.894 13.255 13.164 13.255h45.741c7.269 0 13.164-5.937 13.164-13.255v-10.651c0-7.317-5.895-13.256-13.164-13.256zm-36.131 8.292h-4.252v21.27h-4.108v-21.27h-4.249v-3.618h12.61v3.618zm12.012 21.27h-3.644v-2.012c-.677.744-1.375 1.312-2.104 1.695-.729.399-1.433.586-2.117.586-.846 0-1.475-.271-1.906-.821-.423-.549-.639-1.362-.639-2.461v-15.349h3.644v14.086c0 .435.081.747.226.941.157.2.407.291.749.291.264 0 .605-.127 1.015-.385.413-.26.789-.586 1.131-.988v-13.947h3.644v18.364zm13.23-3.791c0 1.297-.287 2.294-.858 2.989-.569.695-1.4 1.037-2.477 1.037-.717 0-1.355-.13-1.909-.399-.557-.266-1.081-.676-1.559-1.244v1.407h-3.688v-24.887h3.688v8.016c.494-.555 1.015-.985 1.56-1.274.557-.294 1.117-.436 1.684-.436 1.153 0 2.032.388 2.64 1.17.611.782.915 1.929.915 3.432v10.19h.003zm12.641-4.948h-6.974v3.46c0 .964.118 1.636.356 2.01.244.376.654.559 1.237.559.605 0 1.024-.158 1.268-.475.235-.319.361-1.015.361-2.094v-.836h3.751v.942c0 1.882-.454 3.3-1.375 4.257-.907.948-2.273 1.419-4.089 1.419-1.635 0-2.924-.501-3.86-1.51-.933-1.003-1.409-2.395-1.409-4.164v-8.248c0-1.587.52-2.893 1.553-3.895 1.03-1.001 2.357-1.501 3.989-1.501 1.671 0 2.953.463 3.848 1.392.895.93 1.343 2.262 1.343 4.003v4.682zM55.052 48.289c-.582 0-.996.164-1.249.507-.259.322-.379.874-.379 1.645v1.856h3.222v-1.856c0-.771-.129-1.324-.385-1.645-.245-.342-.655-.507-1.209-.507zM42.479 48.227c-.259 0-.52.058-.771.177-.256.117-.505.311-.752.562v11.438c.292.296.582.524.864.654.281.126.572.197.882.197.448 0 .774-.13.984-.393.207-.26.313-.676.313-1.263v-9.483c0-.624-.123-1.092-.382-1.413-.267-.317-.647-.476-1.137-.476zM18.893 27.953h4.62v-11.375l5.379-16.046h-4.696l-2.859 10.961h-.291l-3.002-10.961h-4.654l5.503 16.558v10.863zM35.152 28.464c1.866 0 3.33-.493 4.396-1.478 1.059-.99 1.59-2.34 1.59-4.071v-10.449c0-1.54-.542-2.807-1.622-3.785-1.087-.975-2.48-1.466-4.179-1.466-1.866 0-3.352.464-4.457 1.392-1.102.927-1.656 2.171-1.656 3.744v10.484c0 1.72.539 3.081 1.616 4.102 1.077 1.016 2.517 1.526 4.311 1.526zm-1.702-16.266c0-.439.157-.794.464-1.072.319-.272.723-.404 1.225-.404.542 0 .982.132 1.317.404.334.278.5.633.5 1.072v11.021c0 .54-.163.969-.494 1.278-.328.311-.768.463-1.322.463-.542 0-.961-.148-1.255-.459-.289-.303-.436-.729-.436-1.284v-11.02h.001zM47.335 28.249c.771 0 1.563-.222 2.379-.648.824-.432 1.613-1.064 2.364-1.887v2.241h4.104v-20.228h-4.104v15.354c-.382.439-.807.8-1.262 1.087-.464.284-.846.426-1.148.426-.385 0-.669-.107-.835-.327-.169-.212-.264-.558-.264-1.032v-15.508h-4.098v16.905c0 1.206.241 2.106.717 2.704.485.606 1.193.913 2.147.913z" sketch:type="MSShapeGroup"/></g></svg>