<svg width="72" height="72" viewBox="0 0 72 72" xmlns="http://www.w3.org/2000/svg" xmlns:sketch="http://www.bohemiancoding.com/sketch/ns"><title>placeholder-image</title><g sketch:type="MSLayerGroup" fill="#ECECEC"><path d="M35.847 30.884c-6.15 0-11.151 5.03-11.151 11.208 0 6.179 5.003 11.206 11.151 11.206 6.147 0 11.15-5.027 11.15-11.206 0-6.179-5.001-11.208-11.15-11.208zM72.115 27.732c-.177-2.459-1.912-7.107-7.206-7.107h-9.946c-.438-4.849-2.592-11.193-8.627-11.193h-19.636l-.199.012c-.642.067-6.013.939-6.607 11.192l-11.951.087c-2.676.116-7.737 1.908-7.737 7.856v28.971c-.04.628-.086 3.203 1.714 5.19 1.295 1.436 3.154 2.162 5.528 2.162h57.518l.095-.009c2.438-.237 7.056-2.061 7.056-7.27v-29.755l-.003-.137zm-36.268 31.356c-9.327 0-16.911-7.625-16.911-16.995 0-9.375 7.586-16.998 16.911-16.998 9.324 0 16.91 7.623 16.91 16.998 0 9.37-7.586 16.995-16.91 16.995zm23.489-23.333c-1.711 0-3.103-1.397-3.103-3.118 0-1.717 1.392-3.115 3.103-3.115 1.709 0 3.1 1.4 3.1 3.115 0 1.721-1.392 3.118-3.1 3.118z" sketch:type="MSShapeGroup"/></g></svg>