<svg width="72" height="72" viewBox="0 0 72 72" xmlns="http://www.w3.org/2000/svg" xmlns:sketch="http://www.bohemiancoding.com/sketch/ns"><title>placeholder-vimeo</title><path d="M0 21.49l2.953 3.923s6.092-4.863 8.123-2.432c2.031 2.432 9.78 31.787 12.368 37.205 2.258 4.751 8.489 11.033 15.32 6.544 6.827-4.486 29.532-24.119 33.595-47.302 4.061-23.18-27.322-18.326-30.643 1.869 8.305-5.053 12.741 2.054 8.49 10.097-4.245 8.036-8.121 13.278-10.151 13.278-2.026 0-3.587-5.376-5.908-14.777-2.402-9.719-2.386-27.224-12.366-25.24-9.413 1.871-21.781 16.833-21.781 16.833z" sketch:type="MSShapeGroup" fill="#ECECEC"/></svg>